<svg xmlns="http://www.w3.org/2000/svg" fill="#e5e5e6" viewBox="0 0 512 512">
    <path d="M349.33,69.33a93.62,93.62,0,0,1,93.34,93.34V349.33a93.62,93.62,0,0,1-93.34,93.34H162.67a93.62,93.62,0,0,1-93.34-93.34V162.67a93.62,93.62,0,0,1,93.34-93.34H349.33m0-37.33H162.67C90.8,32,32,90.8,32,162.67V349.33C32,421.2,90.8,480,162.67,480H349.33C421.2,480,480,421.2,480,349.33V162.67C480,90.8,421.2,32,349.33,32ZM256,256a69.33,69.33,0,1,1,69.33-69.33A69.33,69.33,0,0,1,256,256m0-37.33a32,32,0,1,0-32-32,32,32,0,0,0,32,32m106.67-117.33a32,32,0,1,1,32-32,32,32,0,0,1-32,32"/>
</svg>